<svg id="visual" viewBox="0 0 900 600" width="900" height="600" xmlns="http://www.w3.org/2000/svg" xmlns:xlink="http://www.w3.org/1999/xlink" version="1.1"><rect x="0" y="0" width="900" height="600" fill="#e4e4e4"></rect><path d="M0 430L39 478L78 453L117 362L157 416L196 416L235 484L274 395L313 371L352 437L391 445L430 472L470 434L509 472L548 370L587 467L626 452L665 474L704 449L743 431L783 439L822 416L861 495L900 389L900 601L861 601L822 601L783 601L743 601L704 601L665 601L626 601L587 601L548 601L509 601L470 601L430 601L391 601L352 601L313 601L274 601L235 601L196 601L157 601L117 601L78 601L39 601L0 601Z" fill="#ff4455"></path><path d="M0 394L39 424L78 437L117 412L157 463L196 458L235 463L274 483L313 455L352 443L391 518L430 406L470 430L509 426L548 410L587 438L626 480L665 437L704 492L743 450L783 389L822 438L861 378L900 438L900 601L861 601L822 601L783 601L743 601L704 601L665 601L626 601L587 601L548 601L509 601L470 601L430 601L391 601L352 601L313 601L274 601L235 601L196 601L157 601L117 601L78 601L39 601L0 601Z" fill="#ff4950"></path><path d="M0 506L39 406L78 471L117 419L157 415L196 440L235 494L274 491L313 470L352 493L391 511L430 415L470 492L509 399L548 531L587 416L626 519L665 510L704 530L743 431L783 513L822 509L861 457L900 508L900 601L861 601L822 601L783 601L743 601L704 601L665 601L626 601L587 601L548 601L509 601L470 601L430 601L391 601L352 601L313 601L274 601L235 601L196 601L157 601L117 601L78 601L39 601L0 601Z" fill="#ff4d4a"></path><path d="M0 512L39 451L78 442L117 532L157 520L196 424L235 480L274 457L313 443L352 435L391 472L430 509L470 502L509 452L548 535L587 414L626 525L665 508L704 455L743 445L783 433L822 421L861 512L900 473L900 601L861 601L822 601L783 601L743 601L704 601L665 601L626 601L587 601L548 601L509 601L470 601L430 601L391 601L352 601L313 601L274 601L235 601L196 601L157 601L117 601L78 601L39 601L0 601Z" fill="#ff5244"></path><path d="M0 467L39 454L78 495L117 528L157 526L196 500L235 529L274 476L313 431L352 509L391 432L430 533L470 431L509 541L548 487L587 483L626 446L665 464L704 488L743 461L783 488L822 438L861 477L900 521L900 601L861 601L822 601L783 601L743 601L704 601L665 601L626 601L587 601L548 601L509 601L470 601L430 601L391 601L352 601L313 601L274 601L235 601L196 601L157 601L117 601L78 601L39 601L0 601Z" fill="#ff573f"></path><path d="M0 458L39 502L78 498L117 469L157 509L196 539L235 536L274 542L313 512L352 532L391 461L430 521L470 502L509 546L548 489L587 457L626 452L665 488L704 527L743 451L783 461L822 550L861 454L900 456L900 601L861 601L822 601L783 601L743 601L704 601L665 601L626 601L587 601L548 601L509 601L470 601L430 601L391 601L352 601L313 601L274 601L235 601L196 601L157 601L117 601L78 601L39 601L0 601Z" fill="#ff5c39"></path><path d="M0 506L39 481L78 545L117 470L157 546L196 540L235 538L274 479L313 500L352 533L391 548L430 481L470 479L509 471L548 469L587 507L626 491L665 481L704 518L743 519L783 555L822 492L861 505L900 534L900 601L861 601L822 601L783 601L743 601L704 601L665 601L626 601L587 601L548 601L509 601L470 601L430 601L391 601L352 601L313 601L274 601L235 601L196 601L157 601L117 601L78 601L39 601L0 601Z" fill="#ff6233"></path><path d="M0 492L39 493L78 530L117 512L157 497L196 516L235 518L274 529L313 515L352 523L391 562L430 524L470 562L509 539L548 526L587 488L626 556L665 506L704 553L743 545L783 540L822 552L861 515L900 546L900 601L861 601L822 601L783 601L743 601L704 601L665 601L626 601L587 601L548 601L509 601L470 601L430 601L391 601L352 601L313 601L274 601L235 601L196 601L157 601L117 601L78 601L39 601L0 601Z" fill="#ff672c"></path><path d="M0 519L39 570L78 520L117 517L157 528L196 506L235 556L274 515L313 534L352 543L391 511L430 506L470 538L509 524L548 534L587 541L626 516L665 534L704 553L743 542L783 547L822 547L861 560L900 552L900 601L861 601L822 601L783 601L743 601L704 601L665 601L626 601L587 601L548 601L509 601L470 601L430 601L391 601L352 601L313 601L274 601L235 601L196 601L157 601L117 601L78 601L39 601L0 601Z" fill="#ff6c25"></path><path d="M0 526L39 565L78 567L117 571L157 548L196 572L235 539L274 573L313 555L352 572L391 557L430 571L470 539L509 550L548 544L587 533L626 537L665 557L704 544L743 550L783 556L822 552L861 565L900 567L900 601L861 601L822 601L783 601L743 601L704 601L665 601L626 601L587 601L548 601L509 601L470 601L430 601L391 601L352 601L313 601L274 601L235 601L196 601L157 601L117 601L78 601L39 601L0 601Z" fill="#ff711d"></path><path d="M0 568L39 543L78 553L117 552L157 580L196 555L235 561L274 552L313 546L352 569L391 546L430 555L470 579L509 566L548 559L587 581L626 546L665 549L704 566L743 566L783 576L822 570L861 574L900 557L900 601L861 601L822 601L783 601L743 601L704 601L665 601L626 601L587 601L548 601L509 601L470 601L430 601L391 601L352 601L313 601L274 601L235 601L196 601L157 601L117 601L78 601L39 601L0 601Z" fill="#ff7712"></path><path d="M0 589L39 568L78 583L117 586L157 564L196 588L235 563L274 574L313 579L352 582L391 566L430 580L470 571L509 581L548 564L587 589L626 570L665 587L704 580L743 562L783 579L822 576L861 577L900 579L900 601L861 601L822 601L783 601L743 601L704 601L665 601L626 601L587 601L548 601L509 601L470 601L430 601L391 601L352 601L313 601L274 601L235 601L196 601L157 601L117 601L78 601L39 601L0 601Z" fill="#ff7c00"></path></svg>