<svg id="visual" viewBox="0 0 900 600" width="900" height="600" xmlns="http://www.w3.org/2000/svg" xmlns:xlink="http://www.w3.org/1999/xlink" version="1.1"><path d="M0 115L13.7 117C27.3 119 54.7 123 82 124C109.3 125 136.7 123 163.8 126C191 129 218 137 245.2 126C272.3 115 299.7 85 327 91C354.3 97 381.7 139 409 151C436.3 163 463.7 145 491 123C518.3 101 545.7 75 573 65C600.3 55 627.7 61 654.8 69C682 77 709 87 736.2 85C763.3 83 790.7 69 818 73C845.3 77 872.7 99 886.3 110L900 121L900 0L886.3 0C872.7 0 845.3 0 818 0C790.7 0 763.3 0 736.2 0C709 0 682 0 654.8 0C627.7 0 600.3 0 573 0C545.7 0 518.3 0 491 0C463.7 0 436.3 0 409 0C381.7 0 354.3 0 327 0C299.7 0 272.3 0 245.2 0C218 0 191 0 163.8 0C136.7 0 109.3 0 82 0C54.7 0 27.3 0 13.7 0L0 0Z" fill="#ff858f"></path><path d="M0 199L13.7 205C27.3 211 54.7 223 82 217C109.3 211 136.7 187 163.8 192C191 197 218 231 245.2 233C272.3 235 299.7 205 327 198C354.3 191 381.7 207 409 220C436.3 233 463.7 243 491 231C518.3 219 545.7 185 573 162C600.3 139 627.7 127 654.8 129C682 131 709 147 736.2 156C763.3 165 790.7 167 818 180C845.3 193 872.7 217 886.3 229L900 241L900 119L886.3 108C872.7 97 845.3 75 818 71C790.7 67 763.3 81 736.2 83C709 85 682 75 654.8 67C627.7 59 600.3 53 573 63C545.7 73 518.3 99 491 121C463.7 143 436.3 161 409 149C381.7 137 354.3 95 327 89C299.7 83 272.3 113 245.2 124C218 135 191 127 163.8 124C136.7 121 109.3 123 82 122C54.7 121 27.3 117 13.7 115L0 113Z" fill="#ff6773"></path><path d="M0 385L13.7 390C27.3 395 54.7 405 82 395C109.3 385 136.7 355 163.8 363C191 371 218 417 245.2 416C272.3 415 299.7 367 327 352C354.3 337 381.7 355 409 370C436.3 385 463.7 397 491 383C518.3 369 545.7 329 573 307C600.3 285 627.7 281 654.8 292C682 303 709 329 736.2 333C763.3 337 790.7 319 818 330C845.3 341 872.7 381 886.3 401L900 421L900 239L886.3 227C872.7 215 845.3 191 818 178C790.7 165 763.3 163 736.2 154C709 145 682 129 654.8 127C627.7 125 600.3 137 573 160C545.7 183 518.3 217 491 229C463.7 241 436.3 231 409 218C381.7 205 354.3 189 327 196C299.7 203 272.3 233 245.2 231C218 229 191 195 163.8 190C136.7 185 109.3 209 82 215C54.7 221 27.3 209 13.7 203L0 197Z" fill="#ff4455"></path><path d="M0 565L13.7 564C27.3 563 54.7 561 82 555C109.3 549 136.7 539 163.8 540C191 541 218 553 245.2 553C272.3 553 299.7 541 327 541C354.3 541 381.7 553 409 554C436.3 555 463.7 545 491 536C518.3 527 545.7 519 573 520C600.3 521 627.7 531 654.8 530C682 529 709 517 736.2 518C763.3 519 790.7 533 818 533C845.3 533 872.7 519 886.3 512L900 505L900 419L886.3 399C872.7 379 845.3 339 818 328C790.7 317 763.3 335 736.2 331C709 327 682 301 654.8 290C627.7 279 600.3 283 573 305C545.7 327 518.3 367 491 381C463.7 395 436.3 383 409 368C381.7 353 354.3 335 327 350C299.7 365 272.3 413 245.2 414C218 415 191 369 163.8 361C136.7 353 109.3 383 82 393C54.7 403 27.3 393 13.7 388L0 383Z" fill="#e03847"></path><path d="M0 601L13.7 601C27.3 601 54.7 601 82 601C109.3 601 136.7 601 163.8 601C191 601 218 601 245.2 601C272.3 601 299.7 601 327 601C354.3 601 381.7 601 409 601C436.3 601 463.7 601 491 601C518.3 601 545.7 601 573 601C600.3 601 627.7 601 654.8 601C682 601 709 601 736.2 601C763.3 601 790.7 601 818 601C845.3 601 872.7 601 886.3 601L900 601L900 503L886.3 510C872.7 517 845.3 531 818 531C790.7 531 763.3 517 736.2 516C709 515 682 527 654.8 528C627.7 529 600.3 519 573 518C545.7 517 518.3 525 491 534C463.7 543 436.3 553 409 552C381.7 551 354.3 539 327 539C299.7 539 272.3 551 245.2 551C218 551 191 539 163.8 538C136.7 537 109.3 547 82 553C54.7 559 27.3 561 13.7 562L0 563Z" fill="#c12c3a"></path></svg>